<?xml version="1.0" encoding="UTF-8"?>
<svg id="Layer_2" data-name="Layer 2" xmlns="http://www.w3.org/2000/svg" viewBox="0 0 871.72 389.45">
  <defs>
    <style>
      .cls-1 {
        fill: #231f20;
      }

      .cls-2 {
        fill: #04a887;
      }

      .cls-3 {
        fill: #a0d8d1;
      }
    </style>
  </defs>
  <g id="Layer_2-2" data-name="Layer 2">
    <g id="Layer_1-2" data-name="Layer 1-2">
      <g>
        <path class="cls-1" d="M21.08,133.35c1.6-.67,2.95-1.59,4.05-2.75s1.95-2.54,2.54-4.14.89-3.32.89-5.17c0-1.62-.27-3.19-.8-4.73-.53-1.54-1.36-2.9-2.48-4.08s-2.58-2.14-4.38-2.87c-1.79-.73-3.95-1.09-6.48-1.09H0v43.88h5.26v-18.04h10.41c2.01,0,3.81-.33,5.41-1h0ZM5.26,130.15v-17.21h8.57c1.62,0,3.01.24,4.17.71,1.16.47,2.13,1.09,2.9,1.86.77.77,1.33,1.68,1.69,2.72.35,1.04.53,2.12.53,3.22s-.16,2.24-.47,3.28c-.32,1.04-.81,1.96-1.48,2.75s-1.51,1.43-2.51,1.92-2.22.74-3.64.74H5.26Z"/>
        <path class="cls-1" d="M55.71,152.39h5.03v-23.66c0-3.04-.86-5.43-2.57-7.19-1.71-1.75-4.15-2.63-7.3-2.63-2.13,0-4.08.43-5.85,1.3s-3.37,1.87-4.79,3.02v-15.55h-5.03v44.71h5.03v-24.96c1.46-1.14,3.02-2.09,4.67-2.84,1.66-.75,3.25-1.12,4.79-1.12,2.21,0,3.76.58,4.67,1.74s1.36,2.81,1.36,4.94v22.24h-.01Z"/>
        <path class="cls-1" d="M93.38,123.59c-1.3-1.5-2.87-2.65-4.7-3.46-1.83-.81-3.85-1.21-6.06-1.21s-4.23.4-6.06,1.21c-1.83.81-3.4,1.96-4.7,3.46-1.3,1.5-2.31,3.29-3.02,5.38s-1.06,4.44-1.06,7.04.35,4.96,1.06,7.07,1.71,3.9,3.02,5.38c1.3,1.48,2.87,2.61,4.7,3.4,1.83.79,3.85,1.18,6.06,1.18s4.23-.39,6.06-1.18c1.83-.79,3.4-1.92,4.7-3.4,1.3-1.48,2.31-3.27,3.02-5.38s1.06-4.46,1.06-7.07-.35-4.95-1.06-7.04c-.71-2.09-1.71-3.88-3.02-5.38ZM91.52,141.27c-.45,1.58-1.09,2.93-1.92,4.05s-1.83,1.99-3.02,2.6-2.5.92-3.96.92-2.78-.31-3.96-.92-2.19-1.48-3.02-2.6c-.83-1.12-1.47-2.47-1.92-4.05s-.68-3.33-.68-5.26.23-3.69.68-5.26c.45-1.58,1.09-2.93,1.92-4.05s1.83-2,3.02-2.63c1.18-.63,2.5-.95,3.96-.95s2.78.32,3.96.95,2.19,1.51,3.02,2.63c.83,1.12,1.47,2.47,1.92,4.05s.68,3.33.68,5.26-.23,3.69-.68,5.26Z"/>
        <path class="cls-1" d="M107.54,148.66c1.32,1.46,2.87,2.55,4.64,3.28,1.77.73,3.67,1.09,5.68,1.09,2.72,0,5.16-.48,7.33-1.45,2.17-.96,4.18-2.59,6.03-4.88l-3.37-3.08c-1.58,2.01-3.17,3.38-4.79,4.11s-3.25,1.09-4.91,1.09c-1.26,0-2.46-.26-3.61-.77-1.14-.51-2.17-1.28-3.08-2.31-.91-1.03-1.64-2.3-2.19-3.81-.55-1.52-.85-3.28-.89-5.29h23.24c0-2.05-.25-4.13-.74-6.24s-1.29-4.01-2.4-5.71c-1.1-1.69-2.57-3.08-4.41-4.17-1.83-1.08-4.07-1.63-6.71-1.63-2.01,0-3.87.38-5.59,1.15s-3.21,1.87-4.49,3.31-2.28,3.21-2.99,5.32-1.06,4.5-1.06,7.19.38,5.26,1.15,7.39c.77,2.13,1.81,3.92,3.13,5.38l.03.03ZM111.45,125.75c1.6-1.87,3.62-2.81,6.06-2.81s4.56.92,6.12,2.75c1.56,1.83,2.47,4.27,2.75,7.3h-17.8c.31-2.96,1.27-5.37,2.87-7.24Z"/>
        <path class="cls-1" d="M143.94,127.43c1.42-1.14,2.97-2.09,4.64-2.84,1.68-.75,3.28-1.12,4.82-1.12,2.21,0,3.76.58,4.67,1.74s1.36,2.81,1.36,4.94v22.24h5.03v-23.66c0-3.04-.86-5.43-2.57-7.19-1.71-1.75-4.15-2.63-7.3-2.63-2.13,0-4.09.45-5.88,1.36-1.79.91-3.44,1.93-4.94,3.08v-3.78h-4.85v32.82h5.03v-24.96h0Z"/>
        <rect class="cls-1" x="173.27" y="119.57" width="5.03" height="32.82"/>
        <rect class="cls-1" x="173.1" y="107.68" width="5.32" height="4.91"/>
        <polygon class="cls-1" points="190.01 152.39 198.82 139.32 207.69 152.39 213.67 152.39 201.78 135.42 212.78 119.57 207.04 119.57 198.88 131.63 190.78 119.57 184.81 119.57 195.92 135.53 184.27 152.39 190.01 152.39"/>
        <rect class="cls-1" x="233.12" y="108.51" width="5.26" height="43.88"/>
        <polygon class="cls-1" points="257.37 152.39 262.63 152.39 262.63 112.94 275.29 112.94 275.29 108.51 244.71 108.51 244.71 112.94 257.37 112.94 257.37 152.39"/>
        <path class="cls-1" d="M313.04,151.56c1.09-.51,2.1-1.09,3.05-1.74.95-.65,1.8-1.31,2.55-1.98l3.96,4.55h6.45l-6.68-7.7c.91-.95,1.82-2.01,2.75-3.19s1.72-2.31,2.4-3.37l-3.73-3.07c-1.38,2.17-2.9,4.2-4.55,6.09l-10.96-12.53c2.96-1.93,5.15-3.81,6.55-5.65s2.1-3.91,2.1-6.24c0-1.22-.24-2.37-.71-3.46-.47-1.08-1.15-2.04-2.04-2.87s-1.95-1.49-3.19-1.98-2.65-.74-4.23-.74c-1.77,0-3.32.26-4.64.77s-2.42,1.2-3.28,2.07c-.87.87-1.52,1.86-1.95,2.99-.43,1.12-.65,2.3-.65,3.52,0,2.17.42,4.06,1.27,5.68.85,1.62,2.04,3.29,3.58,5.03-1.3.71-2.5,1.48-3.61,2.31s-2.07,1.75-2.89,2.78-1.46,2.18-1.92,3.46c-.46,1.28-.69,2.73-.69,4.35,0,1.81.28,3.49.83,5.03.55,1.54,1.39,2.87,2.52,3.99,1.13,1.12,2.56,2.01,4.3,2.66,1.74.65,3.77.98,6.11.98,1.3,0,2.58-.16,3.82-.47,1.24-.32,2.41-.73,3.5-1.24l-.02-.03ZM302.64,113.21c.93-1.01,2.28-1.51,4.05-1.51,1.46,0,2.69.47,3.7,1.42s1.51,2.25,1.51,3.9c0,1.89-.56,3.46-1.69,4.7-1.12,1.24-2.69,2.49-4.7,3.76-1.5-1.66-2.58-3.09-3.25-4.32-.67-1.22-1.01-2.54-1.01-3.96,0-1.66.46-2.99,1.39-3.99ZM306.04,148.84c-1.5,0-2.79-.24-3.87-.71-1.08-.47-1.98-1.1-2.69-1.89-.71-.79-1.23-1.69-1.57-2.69-.34-1.01-.5-2.04-.5-3.11,0-1.14.17-2.17.5-3.08.33-.91.8-1.74,1.39-2.51s1.28-1.47,2.07-2.1,1.64-1.24,2.54-1.83l11.71,13.42c-.4.43-.95.91-1.66,1.42s-1.5,1-2.37,1.45-1.78.84-2.75,1.15c-.97.32-1.9.47-2.81.47h0Z"/>
        <polygon class="cls-1" points="352.11 119.33 363.64 146.42 367.19 146.42 379.13 119.15 379.13 152.39 384.16 152.39 384.16 108.51 378.96 108.51 365.59 139.2 352.58 108.51 347.08 108.51 347.08 152.39 352.11 152.39 352.11 119.33"/>
        <path class="cls-1" d="M408.17,132.22c-2.64.32-4.98.72-7.01,1.21-2.03.49-3.75,1.17-5.15,2.04s-2.46,1.96-3.19,3.28-1.09,2.97-1.09,4.94c0,1.26.22,2.46.65,3.61.43,1.14,1.07,2.14,1.92,2.99s1.89,1.52,3.13,2.01,2.65.74,4.23.74c1.89,0,3.71-.35,5.44-1.06s3.49-1.83,5.26-3.37v3.79h4.91v-22.53c0-1.77-.3-3.34-.89-4.7-.59-1.36-1.42-2.5-2.48-3.43s-2.34-1.63-3.81-2.1c-1.48-.47-3.12-.71-4.94-.71-4.73,0-8.95,1.71-12.66,5.14l2.72,3.25c1.54-1.42,3.06-2.5,4.58-3.25s3.22-1.12,5.12-1.12c.87,0,1.73.12,2.6.35.87.24,1.65.63,2.34,1.18s1.25,1.27,1.69,2.16c.43.89.65,1.98.65,3.28v1.83l-4.02.47h0ZM412.19,144.88c-1.65,1.38-3.17,2.42-4.57,3.1-1.39.69-2.92,1.04-4.57,1.04-1.88,0-3.37-.52-4.45-1.57-1.08-1.04-1.62-2.34-1.62-3.87,0-1.1.2-2.09.59-2.96.39-.87,1.06-1.62,2-2.25s2.21-1.16,3.8-1.6c1.59-.43,3.6-.81,6.04-1.12l2.77-.35v9.58h.01Z"/>
        <path class="cls-1" d="M430.82,129.32c.55-.75,1.16-1.46,1.83-2.13s1.36-1.26,2.07-1.77c.71-.51,1.43-.92,2.16-1.21.73-.3,1.45-.44,2.16-.44s1.29.06,1.74.18c.45.12.94.34,1.45.65l2.19-4.55c-.67-.43-1.37-.73-2.1-.89-.73-.16-1.55-.24-2.45-.24s-1.86.17-2.75.5c-.89.34-1.71.78-2.48,1.33-.77.55-1.49,1.16-2.16,1.83s-1.26,1.36-1.77,2.07v-5.09h-4.91v32.82h5.03v-23.06h0Z"/>
        <polygon class="cls-1" points="454.41 138.85 457.43 135.83 468.73 152.39 474.52 152.39 460.86 132.34 473.34 119.57 467.13 119.57 454.41 132.52 454.41 107.68 449.39 107.68 449.39 152.39 454.41 152.39 454.41 138.85"/>
        <path class="cls-1" d="M500.31,151.59c2.17-.96,4.18-2.59,6.03-4.88l-3.37-3.08c-1.58,2.01-3.17,3.38-4.79,4.11s-3.25,1.09-4.91,1.09c-1.26,0-2.46-.26-3.61-.77-1.14-.51-2.17-1.28-3.08-2.31-.91-1.03-1.64-2.3-2.19-3.81-.55-1.52-.85-3.28-.89-5.29h23.24c0-2.05-.25-4.13-.74-6.24s-1.29-4.01-2.4-5.71c-1.1-1.69-2.57-3.08-4.41-4.17-1.83-1.08-4.07-1.63-6.71-1.63-2.01,0-3.87.38-5.59,1.15-1.71.77-3.21,1.87-4.5,3.31s-2.28,3.21-2.99,5.32-1.06,4.5-1.06,7.19.38,5.26,1.15,7.39,1.81,3.92,3.13,5.38,2.87,2.55,4.64,3.28c1.77.73,3.67,1.09,5.68,1.09,2.72,0,5.16-.48,7.33-1.45l.04.03ZM486.56,125.75c1.6-1.87,3.62-2.81,6.06-2.81s4.56.92,6.12,2.75,2.47,4.27,2.75,7.3h-17.8c.32-2.96,1.27-5.37,2.87-7.24Z"/>
        <path class="cls-1" d="M515.5,144.17c0,1.5.13,2.81.38,3.93.26,1.12.71,2.05,1.36,2.78s1.52,1.27,2.6,1.63c1.08.35,2.47.53,4.17.53.63,0,1.31-.04,2.04-.12s1.37-.18,1.92-.3v-4.2c-.47.08-1.03.17-1.66.27-.63.1-1.2.15-1.71.15-1.5,0-2.55-.36-3.16-1.09-.61-.73-.92-1.98-.92-3.75v-20.4h7.45v-4.02h-7.45v-9.99l-5.03,2.54v7.45h-5.26v4.02h5.26v20.58h.01Z"/>
        <rect class="cls-1" x="534.55" y="119.57" width="5.03" height="32.82"/>
        <rect class="cls-1" x="534.37" y="107.68" width="5.32" height="4.91"/>
        <path class="cls-1" d="M553.59,127.43c1.42-1.14,2.97-2.09,4.64-2.84,1.67-.75,3.28-1.12,4.82-1.12,2.21,0,3.76.58,4.67,1.74s1.36,2.81,1.36,4.94v22.24h5.03v-23.66c0-3.04-.86-5.43-2.57-7.19-1.71-1.75-4.15-2.63-7.3-2.63-2.13,0-4.09.45-5.88,1.36s-3.44,1.93-4.94,3.08v-3.78h-4.85v32.82h5.03v-24.96h-.01Z"/>
        <path class="cls-1" d="M609.35,119.57h-4.85v3.73c-1.26-1.38-2.67-2.45-4.23-3.22-1.56-.77-3.4-1.15-5.53-1.15-1.93,0-3.73.38-5.38,1.15-1.66.77-3.08,1.86-4.29,3.28-1.2,1.42-2.15,3.16-2.84,5.23s-1.04,4.41-1.04,7.01.34,4.87,1.04,6.92c.69,2.05,1.64,3.79,2.84,5.23s2.63,2.54,4.29,3.31,3.45,1.15,5.38,1.15,3.61-.31,5.14-.95c1.54-.63,3.04-1.71,4.5-3.25v3.65c0,2.63-.72,4.7-2.16,6.21s-3.64,2.27-6.59,2.27c-2.29,0-4.33-.4-6.12-1.21s-3.42-1.84-4.88-3.11l-2.66,3.43c1.5,1.39,3.36,2.59,5.59,3.59s4.92,1.5,8.07,1.5c4.57,0,8-1.09,10.29-3.28s3.43-5.17,3.43-8.96v-32.53h0ZM604.33,143.93c-1.3,1.26-2.63,2.26-3.99,2.99s-2.91,1.09-4.64,1.09c-1.42,0-2.7-.3-3.84-.89s-2.11-1.43-2.9-2.51c-.79-1.08-1.4-2.38-1.83-3.9s-.65-3.2-.65-5.06c0-3.86.84-6.92,2.51-9.17s3.91-3.37,6.71-3.37c1.73,0,3.29.38,4.67,1.15s2.7,1.76,3.96,2.99v16.68h0Z"/>
        <rect class="cls-1" x="30.71" y="177.78" width="5.01" height="4.91"/>
        <path class="cls-1" d="M43.05,198.54c0,3.01-1.6,4.62-4.72,4.62h-20.27c-3.11,0-4.76-1.65-4.76-4.81,0-4.67.44-6.51,5.01-6.66l.97-5.79h-1.46c-6.95,0-10.35,3.55-10.35,10.89v.97c0,7.63,3.45,11.38,10.6,11.38h20.08c7.19,0,10.65-3.69,10.65-11.23v-11.57l-5.74,3.4v8.8h0Z"/>
        <rect class="cls-1" x="24.09" y="177.78" width="5.01" height="4.91"/>
        <path class="cls-1" d="M86.86,186.78h-3.55c-6.51,0-9.53,4.33-9.53,10.65,0,3.84-1.12,5.74-4.76,5.74h-3.84c-3.11,0-4.76-1.6-4.76-4.62v-18.96l-5.69-3.4v21.73c0,7.54,3.45,11.23,10.6,11.23h5.11c1.12,0,2.28-.15,3.45-.44.44,0,1.07-.29,1.94-.83,1.94,1.94,3.94,2.96,7.49,2.96h13.03v-13.9c0-6.47-3.16-10.16-9.48-10.16h0ZM90.66,204.86h-7.58c-1.46,0-3.31-.68-3.55-3.55,0-.83-.05-1.99-.05-4.91,0-1.7.68-3.6,3.84-3.6h3.84c1.56,0,3.5.68,3.5,4.13v7.92h0Z"/>
        <path class="cls-1" d="M207.01,208.36c1.47.39,2.25.7,5.79.77h1.17s.02.01.03.01h.25c6.95-.11,10.31-3.8,10.31-11.23v-21.73l-5.69,3.4v18.96c0,3.01-1.65,4.62-4.76,4.62h-2.39c-3.16,0-4.72-1.7-4.72-4.91v-1.31c0-6.76-3.16-10.16-9.48-10.16h-3.55c-6.51,0-9.53,4.33-9.53,10.65,0,3.84-1.02,5.74-4.76,5.74h-13.62l1.12-.92c4.72-3.89,5.15-6.08,5.25-6.47.44-1.07.63-2.09.63-3.11,0-6.17-6.42-8.46-12.98-8.46-5.15,0-9.72,1.9-12.45,3.6-.49,1.8-.88,4.04-1.12,6.61l.24.24c.15.15,3.99,3.26,8.65,8.51h-17.8l.19-.68c.39-1.31.58-2.87.58-4.57v-21.78l-5.69,3.4v19.01c0,3.01-1.65,4.62-4.76,4.62h-4.67v-7.39c0-6.66-3.16-9.97-9.48-9.97-4.57,0-7.05.39-9.14,2.87-2.14,2.62-2.33,5.3-2.38,10.5,0,6.66,3.16,9.97,9.53,9.97h5.74c-.34,2.04-.88,4.18-4.76,4.18h-1.26l-1.75,6.03h2.87c7.19,0,10.01-3.45,10.69-10.21h26.7c3.94,0,6.95-.83,9.92-2.24,1.94,1.36,4.33,2.24,8.41,2.24h12.74c2.14,0,3.94-.44,5.4-1.26,1.99,1.99,4.47,2.96,7.49,2.96h13.03v-2.48h0ZM117.54,203.16h-5.98c-1.56,0-3.55-.73-3.55-4.04v-3.65c0-2.43,1.31-3.65,3.79-3.65h1.99c2.48,0,3.74,1.31,3.74,3.84v7.49h.01ZM160.53,201.26c-2.87-4.23-5.1-6.56-8.85-9.33,1.75-1.21,3.4-2.58,8.41-2.58s6.42,2.38,6.42,4.18c0,3.6-2.92,5.93-5.98,7.73h0ZM201.32,204.86h-7.63c-1.46,0-3.21-.68-3.55-3.55,0-.83-.05-1.99-.05-4.91,0-1.65.78-3.6,3.84-3.6h3.84c1.65,0,3.55.78,3.55,4.13v7.92h0Z"/>
        <polygon class="cls-1" points="236.28 176.18 230.49 179.63 230.49 209.14 236.28 209.14 236.28 176.18"/>
        <rect class="cls-1" x="262.34" y="212.4" width="5.01" height="4.91"/>
        <rect class="cls-1" x="268.95" y="212.4" width="5.01" height="4.91"/>
        <rect class="cls-1" x="287.67" y="212.4" width="5.01" height="4.91"/>
        <path class="cls-1" d="M290.05,183.32c-1.85,0-4.03.58-6.42,1.75l2.43,5.69c1.65-.78,2.77-1.22,4.13-1.22,3.6,0,6.95,3.26,6.95,7.49v6.13h-23.34c.49-1.8.73-2.92.73-5.25v-11.57l-5.69,3.4v8.8c0,3.01-1.65,4.62-4.76,4.62h-5.35c-3.11,0-4.76-1.6-4.76-4.62v-18.96l-5.69-3.4v21.73c0,7.54,3.45,11.23,10.6,11.23h44.1v-12.74c0-6.56-4.81-13.08-12.93-13.08h0Z"/>
        <path class="cls-1" d="M329.97,209.14h4.42c6.95-.11,10.31-3.8,10.31-11.23v-21.73l-5.69,3.4v18.96c0,3.01-1.65,4.62-4.76,4.62h-4.33v-7.39c0-6.66-3.16-9.97-9.48-9.97-4.57,0-7.05.39-9.14,2.87-2.14,2.62-2.33,5.3-2.38,10.5,0,6.66,3.16,9.97,9.53,9.97h5.74c-.34,2.04-.88,4.18-4.76,4.18h-1.26l-1.75,6.03h2.87c7.19,0,10.01-3.45,10.7-10.21h-.02ZM324.19,203.16h-5.98c-1.56,0-3.55-.73-3.55-4.04v-3.65c0-2.43,1.31-3.65,3.79-3.65h1.99c2.48,0,3.74,1.31,3.74,3.84v7.49h.01Z"/>
        <rect class="cls-1" x="382.92" y="177.78" width="5.01" height="4.91"/>
        <path class="cls-1" d="M388.61,186.34l-5.69,3.4v8.8c0,3.01-1.65,4.62-4.76,4.62h-6.52v-7.39c0-6.66-3.16-9.97-9.48-9.97-4.57,0-7.05.39-9.14,2.87-2.14,2.62-2.33,5.3-2.38,10.5,0,6.66,3.16,9.97,9.53,9.97h5.74c-.34,2.04-.88,4.18-4.76,4.18h-1.26l-1.75,6.03h2.87c7.19,0,10.01-3.45,10.7-10.21h72.25c6.95-.11,10.31-3.8,10.31-11.23v-21.73l-5.69,3.4v18.96c0,3.01-1.65,4.62-4.76,4.62h-7.1c.49-1.8.73-2.92.73-5.25v-11.57l-5.69,3.4v8.8c0,3.01-1.65,4.62-4.76,4.62h-7.1v-3.06c0-3.79-1.36-7.2-3.79-10.11-2.62-3.01-4.96-3.89-8.31-4.23l5.49-10.01h-7.05l-8.07,14.39,4.81,3.84c1.6-.88,2.92-1.31,3.99-1.31,4.13,0,7.05,3.6,7.05,8.17v2.33h-26.11c.49-1.8.73-2.92.73-5.25v-11.57h-.03ZM365.9,203.16h-5.98c-1.56,0-3.55-.73-3.55-4.04v-3.65c0-2.43,1.31-3.65,3.79-3.65h1.99c2.48,0,3.74,1.31,3.74,3.84v7.49h.01Z"/>
        <rect class="cls-1" x="435.04" y="177.78" width="5.01" height="4.91"/>
        <rect class="cls-1" x="428.43" y="177.78" width="5.01" height="4.91"/>
        <path class="cls-1" d="M478.75,194.46c1.26,0,2.48.49,3.35,1.36l2.87-3.31c-1.75-1.99-4.23-3.16-6.81-3.16-5.01,0-9.09,4.18-9.09,9.33,0,1.99.39,2.72,1.02,4.57h-3.84v5.88h19.64v-5.83h-7.15c-2.58,0-4.67-1.99-4.67-4.42s2.09-4.42,4.67-4.42h0Z"/>
        <rect class="cls-1" x="520.95" y="175.45" width="5.01" height="4.91"/>
        <rect class="cls-1" x="514.34" y="175.45" width="5.01" height="4.91"/>
        <rect class="cls-1" x="543.71" y="177.78" width="5.01" height="4.91"/>
        <path class="cls-1" d="M596.76,198.54c0,3.01-1.65,4.62-4.76,4.62h-12.94l1.12-.92c4.72-3.89,5.15-6.08,5.25-6.47.44-1.07.63-2.09.63-3.11,0-6.17-6.42-8.46-12.98-8.46-5.15,0-9.72,1.9-12.45,3.6-.49,1.8-.88,4.04-1.12,6.61l.24.24c.15.15,3.99,3.26,8.65,8.51h-19.74c.49-1.8.73-2.92.73-5.25v-11.57l-5.69,3.4v8.8c0,3.01-1.65,4.62-4.76,4.62h-8.17v-7.78c0-7.83-4.13-11.08-10.6-11.08-4.28,0-6.95.78-9.04,3.26-2.09,2.53-2.58,5.3-2.58,10.21,0,2.14.19,3.45.68,5.4h-6.95c-3.11,0-4.76-1.6-4.76-4.62v-18.96l-5.69-3.4v21.73c0,7.54,3.45,11.23,10.6,11.23h60.58c3.94,0,6.95-.83,9.92-2.24,1.94,1.36,4.33,2.24,8.41,2.24h10.79c6.95-.11,10.31-3.8,10.31-11.23v-21.73l-5.69,3.4v18.96h.01ZM524.94,203.16h-5.98c-2.09,0-4.57-.88-4.57-5.1v-2.72c0-3.11,1.65-4.76,4.76-4.76h1.02c3.11,0,4.76,1.65,4.76,4.81v7.78h0ZM573.51,201.26c-2.87-4.23-5.1-6.56-8.85-9.33,1.75-1.21,3.4-2.58,8.41-2.58s6.42,2.38,6.42,4.18c0,3.6-2.92,5.93-5.98,7.73h0Z"/>
        <polygon class="cls-1" points="608.38 179.63 608.38 209.14 614.16 209.14 614.16 176.18 608.38 179.63"/>
        <rect class="cls-1" x="121.21" y="275.56" width="5.01" height="4.91"/>
        <rect class="cls-1" x="114.6" y="275.56" width="5.01" height="4.91"/>
        <path class="cls-1" d="M159.72,256.89c0,3.01-1.65,4.62-4.76,4.62h-5.79v-4.23c0-7.49-3.45-11.23-10.4-11.23-3.26,0-5.74.92-7.44,2.82v.05c-1.8,1.94-2.72,4.96-2.72,9.14v3.55c0,3.16-1.65,4.72-4.72,4.72h-10.99c-1.6,0-2.77-.53-3.55-1.56-1.17-1.46-1.22-2.77-1.22-5.2,0-3.11,1.46-4.76,4.38-5.01l1.02-5.79c-7.44,0-11.23,2.87-11.28,10.31,0,5.44.88,8.41,2.72,10.31,1.9,1.95,5.88,2.92,9.33,2.92h10.99c6.51,0,9.09-4.33,9.09-8.51.1-1.07.15-3.5.15-7.34,0-2.48,1.9-4.42,4.38-4.42s4.47,1.85,4.47,4.42v11.04h11.43c7.15,0,10.6-3.69,10.6-11.23v-11.57l-5.69,3.4v8.8h0Z"/>
        <rect class="cls-1" x="159.82" y="235.84" width="5.01" height="4.91"/>
        <path class="cls-1" d="M182.87,244.15c-4.57,0-6.95.34-9.14,2.87-2.09,2.58-2.38,5.3-2.38,10.4,0,6.71,3.16,10.06,9.53,10.06h5.74c-.34,2.04-.83,4.18-4.76,4.18h-1.26l-1.75,6.03h2.87c6.56,0,10.11-3.26,10.65-9.72v-13.86c0-6.66-3.16-9.97-9.48-9.97h-.02ZM186.66,261.51h-6.03c-1.56,0-3.55-.73-3.55-4.04v-3.65c0-2.43,1.31-3.65,3.79-3.65h1.99c2.53,0,3.79,1.31,3.79,3.84v7.49h.01Z"/>
        <rect class="cls-1" x="215.35" y="236.13" width="5.01" height="4.91"/>
        <rect class="cls-1" x="221.96" y="236.13" width="5.01" height="4.91"/>
        <path class="cls-1" d="M265.28,256.89c0,3.01-1.65,4.62-4.76,4.62h-4.91v-3.06c0-3.79-1.36-7.2-3.79-10.11-2.63-3.01-4.96-3.89-8.31-4.23l5.49-10.01h-7.05l-8.07,14.39,4.81,3.84c1.6-.88,2.92-1.31,3.99-1.31,4.13,0,7.05,3.6,7.05,8.17v2.33h-26.11c.49-1.8.73-2.92.73-5.25v-11.57l-5.69,3.4v8.8c0,3.01-1.65,4.62-4.76,4.62h-5.84v-16.72l-5.79,3.45v18.52c0,3.74-1.94,4.62-5.69,4.62l-1.31,6.37h2.19c6.66,0,9.92-3.26,10.55-9.77l.05-.49h52.61c6.95-.11,10.31-3.8,10.31-11.23v-21.73l-5.69,3.4v18.96h-.01Z"/>
        <path class="cls-1" d="M294.21,256.89c0,3.11-1.51,4.28-4.38,4.62l-5.2-23.43-5.49,3.65,4.42,19.79h-5.01l-1.65,5.98h12.4c7.1,0,10.6-3.69,10.6-11.23v-21.34l-5.69,3.4v18.57h0Z"/>
        <path class="cls-1" d="M283.56,276.48c0-1.22,1.07-2.24,2.38-2.24.68,0,1.31.24,1.75.68l1.46-1.7c-.88-1.02-2.14-1.6-3.5-1.6-2.58,0-4.67,2.14-4.67,4.76,0,1.07.19,1.41.53,2.38h-1.99v3.01h10.11v-3.01h-3.69c-1.31,0-2.38-1.02-2.38-2.28h0Z"/>
        <polygon class="cls-1" points="305.83 267.48 311.62 267.48 311.62 234.52 305.83 237.98 305.83 267.48"/>
        <rect class="cls-1" x="344.77" y="233.99" width="5.01" height="4.91"/>
        <rect class="cls-1" x="351.39" y="233.99" width="5.01" height="4.91"/>
        <path class="cls-1" d="M375.46,256.89c0,3.01-1.65,4.62-4.76,4.62h-9.19v-7.78c0-7.63-3.89-10.89-11.67-10.89s-10.45,5.79-10.45,10.35v5.1c0,5.15,3.35,8.7,9.24,9.14h7c0,3.94-1.17,5.93-4.67,5.93h-16.77c-3.11,0-4.76-1.7-4.76-5.15v-4.76c0-3.06,1.46-4.72,4.42-4.96l.92-5.78c-7.39,0-11.23,2.92-11.23,10.26v5.01c0,3.74.88,6.56,2.67,8.56,2.29,1.9,5.44,2.82,9.38,2.82h16.72c6.81,0,9.19-3.5,9.19-11.86h9.05c7.15,0,10.6-3.69,10.6-11.23v-11.57l-5.69,3.4v8.8h0ZM355.62,261.51h-5.98c-2.04,0-4.57-.88-4.57-5.1v-2.48c0-3.16,1.6-4.76,4.76-4.81,4.33,0,5.79,1.56,5.79,4.86v7.54h0Z"/>
        <rect class="cls-1" x="373.95" y="270.74" width="5.01" height="4.91"/>
        <rect class="cls-1" x="367.34" y="270.74" width="5.01" height="4.91"/>
        <rect class="cls-1" x="467.59" y="236.13" width="5.01" height="4.91"/>
        <rect class="cls-1" x="460.98" y="236.13" width="5.01" height="4.91"/>
        <path class="cls-1" d="M481.11,256.89c0,3.01-1.65,4.62-4.76,4.62h-7.1c.49-1.8.73-2.92.73-5.25v-11.57l-5.69,3.4v8.8c0,3.01-1.65,4.62-4.76,4.62h-9.05l.19-.68c.39-1.31.54-2.87.54-4.57v-10.94l-5.69,2.92v8.41c0,3.16-1.6,4.86-4.67,4.86h-3.55v-16.19l-5.64,2.92v10.21c0,1.6-1.31,3.06-3.06,3.06h-5.2v-16.19l-5.69,2.92v13.27h-9.63v-7.39c0-6.66-3.16-9.97-9.48-9.97-4.57,0-7.05.39-9.14,2.87-2.14,2.62-2.33,5.3-2.38,10.5,0,6.66,3.16,9.97,9.53,9.97h5.74c-.34,2.04-.88,4.18-4.76,4.18h-1.26l-1.75,6.03h2.87c7.19,0,10.01-3.45,10.7-10.21h68.36c6.95-.11,10.31-3.8,10.31-11.23v-21.73l-5.69,3.4v18.96h-.02ZM402.34,261.51h-5.98c-1.56,0-3.55-.73-3.55-4.04v-3.65c0-2.43,1.31-3.65,3.79-3.65h1.99c2.48,0,3.74,1.31,3.74,3.84v7.49h.01Z"/>
        <polygon class="cls-1" points="492.73 267.48 498.52 267.48 498.52 234.52 492.73 237.98 492.73 267.48"/>
        <path class="cls-1" d="M515.97,244.15c-4.57,0-6.95.34-9.14,2.87-2.09,2.58-2.38,5.3-2.38,10.4,0,6.71,3.16,10.06,9.53,10.06h5.74c-.34,2.04-.83,4.18-4.76,4.18h-1.26l-1.75,6.03h2.87c6.56,0,10.11-3.26,10.65-9.72v-13.86c0-6.66-3.16-9.97-9.48-9.97h-.02ZM519.76,261.51h-6.03c-1.56,0-3.55-.73-3.55-4.04v-3.65c0-2.43,1.31-3.65,3.79-3.65h1.99c2.53,0,3.79,1.31,3.79,3.84v7.49h.01Z"/>
      </g>
      <g>
        <path class="cls-2" d="M789.6.07c-1.3,10.33,4.91,16.61,11.33,22.95,13.51,13.36,27.41,26.39,40.13,40.48,41.66,46.09,40.78,114.89-2.15,160.04-21.17,22.26-43.3,43.6-65.01,65.34-5,5-5.04,4.96,0,10.06,12.59,12.72,15.41,27.46,7.76,40.92-.75,1.33-1.7,2.54-2.53,3.77-.68-.35-1.17-.49-1.17-.62-.12-8.56-4.6-14.68-10.47-20.5-32.38-32.13-64.8-64.22-96.75-96.77-40.92-41.68-46.51-104.35-12.98-150.95,8.99-12.48,20.78-22.97,31.44-34.22,5.99-6.32,12.21-12.43,18.5-18.45,6.11-5.86,10.85-12.31,10.22-21.94,8.24,7.44,10.66,22.86,5.02,33.29-2.87,5.32-7.12,10.03-11.32,14.47-10.66,11.27-22.4,21.59-32.35,33.45-30.9,36.86-29.33,91.44,3.82,126.4,22.12,23.32,45.32,45.63,67.97,68.44,1.99,2,3.35,2.18,5.44.09,23.19-23.4,47.2-46.03,69.52-70.22,34.35-37.22,31.83-95.9-4.51-132.58-10.26-10.35-20.72-20.5-30.87-30.95-11.12-11.44-12.65-27.98-4.06-40.51.51-.74,1.2-1.37,1.8-2.06.4.02.79.04,1.19.07h.01Z"/>
        <path class="cls-3" d="M784.2,219.13c-2.81-3.37-5.2-6.74-8.07-9.63-13.91-14.09-28.04-27.97-41.93-42.08-13.82-14.03-13.75-32.99-.03-46.99,1.55-1.58,3.07-3.21,4.69-4.71,4.78-4.42,8.89-8.83,9.39-16.16.31-4.43,3.41-8.67,6.26-12.9-.29,11.1,6.68,17.47,13.47,23.98,3.88,3.73,7.71,7.53,11.38,11.46,10,10.74,11.36,26.85,3.4,39.11-.49.75-1.14,1.39-1.7,2.04-.51-.29-1-.45-1-.6.09-9.26-5.09-15.63-11.48-21.45-3.39-3.09-6.59-6.4-9.73-9.75-2.12-2.26-3.84-2.31-5.84.11-1.31,1.58-2.98,2.85-4.38,4.35-4.5,4.85-4.72,11.08-.11,15.78,11.32,11.54,22.77,22.93,34.34,34.21.84.82,3.64.93,4.55.18,23.76-19.54,28.02-52.19,9.86-76.04-3.33-4.39-7.59-8.06-11.31-12.17-9.41-10.43-10.89-26.68-3.48-37.95.64-.98,1.5-1.83,3.27-3.94-.72,14.65,9.44,21.31,17.47,29.08,12.5,12.11,21.86,25.85,25.04,43.23,4.45,24.32-1.33,46.02-17.74,64.46-7.85,8.83-16.69,16.77-26.33,26.35h.01Z"/>
        <path class="cls-3" d="M724.55,56.95c6.81,7.63,8.56,16.34,6.84,25.94-1.58,8.75-7.15,14.97-13.26,20.87-10.36,10.02-16.17,22.18-16.76,36.63-.66,16.08,4.93,29.76,16.28,41.12,16.22,16.24,32.37,32.54,48.7,48.66,2.82,2.78,2.96,4.57.03,7.24-3.74,3.39-7.12,7.18-11.06,11.19-1.57-1.34-3.03-2.43-4.31-3.71-16.04-15.98-32.07-31.97-48.06-47.98-30.43-30.47-30.63-76.76-.5-107.39,3.11-3.16,6.21-6.32,9.41-9.39,6.59-6.34,12.82-12.85,12.68-23.16h0Z"/>
        <path class="cls-2" d="M741.67,311.38c-.13,9.94,5.54,16.34,12.08,22.4,4.75,4.41,9.31,9.05,13.63,13.87,9.54,10.64,10.65,26.43,2.9,38.31-.56.85-1.35,1.55-3.06,3.48,1.02-16.27-11.27-22.8-19.73-31.7-6.23-6.57-11.83-13.19-13.11-22.5-1.22-8.91,1.01-16.82,7.28-23.87h0Z"/>
        <path class="cls-3" d="M754.77,43.1l12.27,12.27c2.36,2.36,2.36,6.19,0,8.56l-12.27,12.27-12.27-12.27c-2.36-2.36-2.36-6.19,0-8.56l12.27-12.27h0Z"/>
        <path class="cls-3" d="M747.14,30.59l7.67-7.67,7.67,7.67c.87.87.87,2.28,0,3.15l-7.67,7.67-7.67-7.67c-.87-.87-.87-2.29,0-3.16h0Z"/>
        <path class="cls-3" d="M747.13,11.13l7.67-7.67,7.67,7.67c.87.87.87,2.28,0,3.15l-7.67,7.67-7.67-7.67c-.87-.87-.87-2.29,0-3.16h0Z"/>
      </g>
    </g>
  </g>
</svg>